<svg xmlns="http://www.w3.org/2000/svg" width="1024" height="1024" style=""><rect id="backgroundrect" width="100%" height="100%" x="0" y="0" fill="none" stroke="none"/>
  
<g class="currentLayer" style=""><title>Layer 1</title><path d="M428.9 762.5c184.2 0 333.6-149.4 333.6-333.6S613.2 95.3 428.9 95.3 95.3 244.7 95.3 428.9s149.4 333.6 333.6 333.6zm345.4-79.2l230.9 230.9c25.1 25.1 25.1 65.9 0 91-25.1 25.1-65.9 25.1-91 0L683.3 774.3c-73.6 54.4-162.8 83.7-254.4 83.5C192 857.8 0 665.8 0 428.9S192 0 428.9 0s428.9 192 428.9 428.9c.2 91.6-29.1 180.7-83.5 254.4z" id="svg_1" class="selected" fill-opacity="1" fill="#828282"/></g></svg>