<svg xmlns="http://www.w3.org/2000/svg" width="100" height="100"><rect width="100%" height="100%" fill="none"/><g class="currentLayer"><path d="M28 74h44c1.1 0 2-.9 2-2v-4.1c0-3.4-2.2-6.4-5.4-7.5L58 56.6v-1.7c2.6-2.7 4-6.3 4-10v-9c-.2-5.4-5.7-9.9-12-9.9s-11.8 4.5-12 10v8.9c0 3.7 1.4 7.3 4 10v1.7l-10.6 3.7c-3.2 1.1-5.4 4.2-5.4 7.5V72c0 1.1.9 2 2 2zm2-6.1c0-1.7 1.1-3.2 2.7-3.8l12-4.2c.8-.3 1.3-1 1.3-1.9v-4c0-.6-.2-1.1-.6-1.5-2.1-2-3.3-4.8-3.4-7.7V36c.1-3.2 3.9-6.1 8-6.1s7.9 2.8 8 6v8.9c0 2.9-1.2 5.7-3.4 7.7-.4.4-.6 1-.6 1.5v4c0 .9.5 1.6 1.3 1.9l12 4.2c1.6.6 2.7 2.1 2.7 3.8V70H30v-2.1z" class="selected" fill="#828282"/></g></svg>