<?xml version="1.0" encoding="utf-8"?>
<!-- Generator: Adobe Illustrator 26.0.3, SVG Export Plug-In . SVG Version: 6.00 Build 0)  -->
<svg version="1.1" xmlns="http://www.w3.org/2000/svg" xmlns:xlink="http://www.w3.org/1999/xlink" x="0px" y="0px"
	 viewBox="0 0 235.2 129.1" style="enable-background:new 0 0 235.2 129.1;" xml:space="preserve">
<style type="text/css">
	.st0{display:none;}
	.st1{display:inline;fill:#1D1D1B;}
	.st2{fill:#1D1D1B;}
</style>
<g id="Слой_1" class="st0">
	<path class="st1" d="M47.1,102.3c0,1.9-0.3,2-0.6,2.3v0.2h2.9v-0.2c-0.2-0.2-0.5-0.5-0.5-2.3v-3.4c0-1.8,0.2-2.1,0.5-2.3v-0.2h-4.8
		c-2.1,0-3.2,0.9-3.2,2.4c0,1.3,0.7,2.1,2.4,2.3v0.1c-1.2,0-1.7,0.7-2.1,1.7l-0.1,0.4c-0.3,0.9-0.4,1.1-0.7,1.4v0.2h2.5
		c0.1-0.7,0.1-1.2,0.4-2c0.2-0.7,0.5-1.2,1.6-1.2h1.7C47.1,101.7,47.1,102.3,47.1,102.3z M45.2,100.5c-1,0-1.7-0.4-1.7-1.5
		s0.7-1.5,1.7-1.5h1.9v3.1L45.2,100.5L45.2,100.5z M28.4,101.7l-1.6-0.8c-0.5,1.4-1.3,2.8-3.2,2.8c-2.4,0-3.2-1.5-3.2-4.3
		s0.9-4.3,3-4.3c1.8,0,2.4,1.2,2.8,2.9l2-0.8c-0.7-2.1-2.5-3.3-4.9-3.3c-3.2,0-5.3,2.3-5.3,5.5s2.1,5.5,5.3,5.5
		C26,104.9,27.6,103.5,28.4,101.7z M116.9,104.5c-0.1-0.2-0.1-0.7,0.3-1.7h3.7c0.4,1,0.4,1.5,0.3,1.7v0.2h2.8v-0.2
		c-0.4-0.4-0.7-0.7-1.4-2.4l-2.5-5.9h-1.7l-2.3,5.9c-0.6,1.6-0.9,2-1.3,2.4v0.2h2.2L116.9,104.5L116.9,104.5z M118.3,99.7
		c0.3-0.7,0.5-1.3,0.6-2h0.1c0.1,0.7,0.4,1.4,0.6,2l0.8,2.1h-3L118.3,99.7z M159.1,104.9c2.8,0,4.4-2,4.4-4.4s-1.6-4.4-4.4-4.4
		c-2.8,0-4.4,2-4.4,4.4S156.3,104.9,159.1,104.9z M159.1,97.3c1.9,0,2.3,1.3,2.3,3.3s-0.4,3.3-2.3,3.3s-2.3-1.3-2.3-3.3
		S157.2,97.3,159.1,97.3z M148.2,97.4h0.2v4.8c0,1.8-0.2,2.1-0.5,2.3v0.2h2.8v-0.2c-0.2-0.2-0.5-0.5-0.5-2.3v-4.8h0.2
		c0.9,0,2,0.2,2.9,0.4h0.2v-1.5h-8.2v1.5h0.2C146.1,97.6,147.3,97.4,148.2,97.4L148.2,97.4z M143.7,103.2h-0.2
		c-1.5,0.3-2.5,0.4-4.4,0.4h-0.5v-2.7h0.2c1,0,2.3,0,3.1,0.3h0.2v-1.7H142c-0.8,0.3-2.1,0.3-3.1,0.3h-0.2v-2.5h0.2
		c1.9,0,2.9,0.1,4.4,0.4h0.2v-1.5h-7v0.2c0.2,0.2,0.5,0.5,0.5,2.3v3.4c0,1.8-0.2,2.1-0.5,2.3v0.2h7.3L143.7,103.2L143.7,103.2z
		 M213.7,95.4c2,0,3-0.6,3-1.8c0-0.2,0-0.4-0.1-0.5h-1.7v0.4c0,0.6-0.3,1.1-1.3,1.1c-0.9,0-1.3-0.5-1.3-1.1v-0.4h-1.7
		c0,0.1-0.1,0.3-0.1,0.5C210.7,94.7,211.7,95.4,213.7,95.4L213.7,95.4z M174.3,102.5c0-1.1-0.9-2.1-2.5-2.1v-0.1
		c1.2-0.1,2.1-0.9,2.1-2c0-1.3-0.8-2-2.7-2h-5.1v0.2c0.2,0.2,0.5,0.5,0.5,2.3v3.4c0,1.8-0.2,2.1-0.5,2.3v0.2h5.3
		C173.4,104.7,174.3,103.9,174.3,102.5z M168.4,97.4h2.2c1,0,1.5,0.4,1.5,1.3c0,0.8-0.5,1.3-1.5,1.3h-2.2
		C168.4,100,168.4,97.4,168.4,97.4z M168.4,103.7v-2.8h2.4c1,0,1.5,0.5,1.5,1.4s-0.5,1.4-1.5,1.4H168.4z M54.4,97.4h0.2v4.8
		c0,1.8-0.2,2.1-0.5,2.3v0.2h2.8v-0.2c-0.2-0.2-0.5-0.5-0.5-2.3v-4.8h0.2c0.9,0,2,0.2,2.9,0.4h0.2v-1.5h-8.2v1.5h0.2
		C52.4,97.6,53.5,97.4,54.4,97.4z M128.6,104.5c-0.3-0.2-0.6-0.5-0.6-2.3v-0.5h2.5c2.3,0,3.4-1.1,3.4-2.7s-1.1-2.7-3.4-2.7h-4.9v0.2
		c0.2,0.2,0.5,0.5,0.5,2.3v3.4c0,1.8-0.2,2.1-0.5,2.3v0.2h2.9L128.6,104.5L128.6,104.5z M128,97.4h2.1c1.2,0,1.7,0.5,1.7,1.6
		s-0.5,1.6-1.7,1.6H128C128,100.6,128,97.4,128,97.4z M38.8,102.5c0-1.1-0.9-2.1-2.5-2.1v-0.1c1.2-0.1,2.1-0.9,2.1-2
		c0-1.3-0.8-2-2.7-2h-5.1v0.2c0.2,0.2,0.5,0.5,0.5,2.3v3.4c0,1.8-0.2,2.1-0.5,2.3v0.2H36C38,104.7,38.8,103.9,38.8,102.5z
		 M32.9,97.4h2.2c1,0,1.5,0.4,1.5,1.3c0,0.8-0.5,1.3-1.5,1.3h-2.2C32.9,100,32.9,97.4,32.9,97.4z M32.9,103.7v-2.8h2.4
		c1,0,1.5,0.5,1.5,1.4s-0.5,1.4-1.5,1.4H32.9z M84.1,103.3c-0.1,1.1-0.2,1.3-0.4,1.5v0.2h2.7v-0.2c-0.2-0.2-0.4-0.4-0.4-1.5
		c3.2,0,5.5-1.1,5.5-4s-2.3-4-5.5-4c0.1-1,0.3-1.3,0.4-1.5v-0.2h-2.7v0.2c0.2,0.2,0.4,0.4,0.4,1.5c-3.2,0-5.5,1.1-5.5,4
		S80.9,103.3,84.1,103.3z M85.9,96.3c2.3,0,3.3,0.8,3.3,3s-1.1,3-3.3,3V96.3z M84.1,96.3v6c-2.3,0-3.3-0.8-3.3-3
		C80.7,97,81.8,96.3,84.1,96.3z M185,102.4l-1.3-0.7c-0.4,1.1-1.1,2.1-2.6,2.1c-1.7,0-2.3-1.2-2.3-3.3c0-2.1,0.6-3.3,2.1-3.3
		c1.4,0,1.8,0.9,2.2,2.1l1.7-0.7c-0.5-1.7-2.1-2.6-3.9-2.6c-2.5,0-4.2,1.8-4.2,4.4c0,2.5,1.7,4.4,4.3,4.4
		C183.1,104.9,184.3,103.8,185,102.4z M189.6,100.9h1.5c1.3,0,1.5,0.7,1.7,1.5c0.3,0.8,0.4,1.5,0.5,2.3h2.4v-0.2
		c-0.3-0.3-0.4-0.6-0.7-1.4l-0.3-1c-0.4-1.2-1-1.8-2.7-1.8v-0.1c0.9-0.1,1.2-0.5,1.6-1.3l0.2-0.3c0.3-0.5,0.5-0.6,0.8-0.6
		c0.2,0,0.4,0.1,0.5,0.2h0.1v-2.1c-0.2-0.1-0.4-0.1-0.7-0.1c-0.9,0-1.5,0.6-1.8,1.5l-0.2,0.8c-0.4,1.2-0.8,1.5-1.9,1.5h-1v-1
		c0-1.8,0.2-2.1,0.5-2.3v-0.2h-2.8v0.2c0.2,0.2,0.5,0.5,0.5,2.3v3.4c0,1.8-0.2,2.1-0.5,2.3v0.2h2.8v-0.2c-0.2-0.2-0.5-0.5-0.5-2.3
		L189.6,100.9L189.6,100.9z M150.5,115.9h0.2c0.8-0.2,1.9-0.4,2.9-0.4h0.2v4.8c0,1.8-0.2,2.1-0.5,2.3v0.2h2.8v-0.2
		c-0.2-0.2-0.5-0.5-0.5-2.3v-4.8h0.2c0.9,0,2,0.2,2.9,0.4h0.2v-1.5h-8.2v1.5H150.5z M131.7,115.9h0.2c0.8-0.2,1.9-0.4,2.9-0.4h0.2
		v4.8c0,1.8-0.2,2.1-0.5,2.3v0.2h2.8v-0.2c-0.2-0.2-0.5-0.5-0.5-2.3v-4.8h0.2c0.9,0,2,0.2,2.9,0.4h0.2v-1.5h-8.2v1.5H131.7z
		 M147.7,114.6c0.1,0.3-0.1,0.7-0.7,1.9l-0.4,0.8c-0.3,0.6-0.6,1.2-0.8,2h-0.1c-0.2-0.7-0.5-1.3-0.9-2l-0.4-0.8
		c-0.6-1.2-0.8-1.6-0.7-1.9v-0.2H141v0.2c0.4,0.3,0.6,0.7,1.3,1.9l2.3,4.3c-0.2,0.4-0.7,0.7-1.3,0.7c-0.4,0-0.8-0.1-1.1-0.3
		l-0.6,1.5c0.3,0.2,0.9,0.4,1.6,0.4c1.3,0,2.1-0.8,2.9-2.3l2.3-4.3c0.7-1.2,0.8-1.6,1.2-1.9v-0.2h-2.1v0.2L147.7,114.6z M204.2,98.2
		v4c0,1.8-0.2,2.1-0.5,2.3v0.2h2.8v-0.2c-0.2-0.2-0.5-0.5-0.5-2.3v-3.4c0-1.8,0.2-2.1,0.5-2.3v-0.2h-2.2l-3.1,4.6
		c-0.4,0.6-0.7,1.1-1.1,1.9H200c0.1-0.8,0.1-1.4,0.1-2.2v-1.8c0-1.8,0.2-2.1,0.5-2.3v-0.2h-2.8v0.2c0.2,0.2,0.5,0.5,0.5,2.3v3.4
		c0,1.8-0.2,2.1-0.5,2.3v0.2h2.2l3.1-4.6C203.5,99.5,203.8,99,204.2,98.2z M215.7,98.2v4c0,1.8-0.2,2.1-0.5,2.3v0.2h2.8v-0.2
		c-0.2-0.2-0.5-0.5-0.5-2.3v-3.4c0-1.8,0.2-2.1,0.5-2.3v-0.2h-2.2l-3.1,4.6c-0.4,0.6-0.7,1.1-1.1,1.9h-0.1c0.1-0.8,0.1-1.4,0.1-2.2
		v-1.8c0-1.8,0.2-2.1,0.5-2.3v-0.2h-2.8v0.2c0.2,0.2,0.5,0.5,0.5,2.3v3.4c0,1.8-0.2,2.1-0.5,2.3v0.2h2.2l3.1-4.6
		C215,99.5,215.4,99,215.7,98.2z M81.9,119.1c-0.4,0.6-0.7,1.1-1.1,1.9h-0.1c0.1-0.8,0.1-1.4,0.1-2.2V117c0-1.8,0.2-2.1,0.5-2.3
		v-0.2h-2.8v0.2c0.2,0.2,0.5,0.5,0.5,2.3v3.4c0,1.8-0.2,2.1-0.5,2.3v0.2h2.2l3.1-4.6c0.4-0.6,0.7-1.1,1.1-1.9H85
		c-0.1,0.8-0.1,1.4-0.1,2.2v1.8c0,1.8-0.2,2.1-0.5,2.3v0.2h2.8v-0.2c-0.2-0.2-0.5-0.5-0.5-2.3V117c0-1.8,0.2-2.1,0.5-2.3v-0.2H85
		L81.9,119.1z M95.8,114.6c0.2,0.2,0.5,0.5,0.5,2.3v1h-3.9v-1c0-1.8,0.2-2.1,0.5-2.3v-0.2H90v0.2c0.2,0.2,0.5,0.5,0.5,2.3v3.4
		c0,1.8-0.2,2.1-0.5,2.3v0.2h2.8v-0.2c-0.2-0.2-0.5-0.5-0.5-2.3V119h3.9v1.3c0,1.8-0.2,2.1-0.5,2.3v0.2h2.8v-0.2
		c-0.2-0.2-0.5-0.5-0.5-2.3V117c0-1.8,0.2-2.1,0.5-2.3v-0.2L95.8,114.6L95.8,114.6L95.8,114.6z M71.7,101.3H77v-1.4h-5.3
		C71.7,99.9,71.7,101.3,71.7,101.3z M69.8,100.5c0-2.4-1.6-4.4-4.4-4.4c-2.8,0-4.4,2-4.4,4.4s1.6,4.4,4.4,4.4S69.8,102.9,69.8,100.5
		z M65.3,103.8c-1.9,0-2.3-1.3-2.3-3.3s0.4-3.3,2.3-3.3c1.9,0,2.3,1.3,2.3,3.3S67.2,103.8,65.3,103.8z M99.9,102.2
		c0,1.8-0.2,2.1-0.5,2.3v0.2h2.8v-0.2c-0.2-0.2-0.5-0.5-0.5-2.3v-3.4c0-1.8,0.2-2.1,0.5-2.3v-0.2H100l-3.1,4.6
		c-0.4,0.6-0.7,1.1-1.1,1.9h-0.1c0.1-0.8,0.1-1.4,0.1-2.2v-1.8c0-1.8,0.2-2.1,0.5-2.3v-0.2h-2.8v0.2c0.2,0.2,0.5,0.5,0.5,2.3v3.4
		c0,1.8-0.2,2.1-0.5,2.3v0.2h2.2l3.1-4.6c0.4-0.6,0.7-1.1,1.1-1.9h0.1c-0.1,0.8-0.1,1.4-0.1,2.2C99.9,100.4,99.9,102.2,99.9,102.2z
		 M110.9,115.9h0.2c0.8-0.2,1.9-0.4,2.9-0.4h0.2v4.8c0,1.8-0.2,2.1-0.5,2.3v0.2h2.8v-0.2c-0.2-0.2-0.5-0.5-0.5-2.3v-4.8h0.2
		c0.9,0,2,0.2,2.9,0.4h0.2v-1.5h-8.2v1.5H110.9z M124.5,119.1c-0.4,0.6-0.7,1.1-1.1,1.9h-0.1c0.1-0.8,0.1-1.4,0.1-2.2V117
		c0-1.8,0.2-2.1,0.5-2.3v-0.2h-2.8v0.2c0.2,0.2,0.5,0.5,0.5,2.3v3.4c0,1.8-0.2,2.1-0.5,2.3v0.2h2.2l3.1-4.6c0.4-0.6,0.7-1.1,1.1-1.9
		h0.1c-0.1,0.8-0.1,1.4-0.1,2.2v1.8c0,1.8-0.2,2.1-0.5,2.3v0.2h2.8v-0.2c-0.2-0.2-0.5-0.5-0.5-2.3V117c0-1.8,0.2-2.1,0.5-2.3v-0.2
		h-2.2C127.6,114.5,124.5,119.1,124.5,119.1z M105.7,121.9c-1.7,0-2.3-1.2-2.3-3.3c0-2.1,0.6-3.3,2.1-3.3c1.4,0,1.8,0.9,2.2,2.1
		l1.7-0.7c-0.5-1.7-2.1-2.6-3.9-2.6c-2.5,0-4.2,1.8-4.2,4.4c0,2.5,1.7,4.4,4.3,4.4c2.1,0,3.3-1.1,4-2.6l-1.3-0.7
		C107.9,120.9,107.2,121.9,105.7,121.9z M110.2,104.5v0.2h2.8v-0.2c-0.2-0.2-0.5-0.5-0.5-2.3v-3.4c0-1.8,0.2-2.1,0.5-2.3v-0.2h-7.1
		v0.2c0.2,0.2,0.5,0.7,0.5,1.8c0,1.3-0.1,4.9-1.7,4.9h-0.3v1.7c0.2,0.1,0.5,0.1,0.8,0.1c2.1,0,2.6-2.7,2.6-6.7v-0.8h2.9v4.8
		C110.6,104,110.4,104.3,110.2,104.5z M101.5,61.5h2.6l-6.6-15.7H95l-6.6,15.7h2.5l1.4-3.4h7.8C100.1,58.1,101.5,61.5,101.5,61.5z
		 M93,56.2l3.1-7.8l3.2,7.8H93z M147.9,52.9c0-4.6-3.4-7.4-7.7-7.4s-7.7,2.8-7.7,7.4c0,2.8,1.4,5.4,3.9,6.8l-3.6-0.3v2h6.3v-1.8
		c-2.5-1.4-4.3-3.9-4.3-6.8c0-3,2-5.3,5.3-5.3s5.3,2.4,5.3,5.3s-1.8,5.3-4.3,6.8v1.8h6.3v-2l-3.6,0.3
		C146.6,58.3,147.9,55.8,147.9,52.9z M137,70.2l0.8,0.8l1.9-0.1c-1.3,1.1-2.3,2-3.3,2.8c-1.8,1.2-3.9,2-6.8,2
		c-5.1,0-8.2-2.4-10.1-4.3V36.8h11.2l1.5,1.5h1.4V37l-1.1-1.2l1.1-1.1v-1.4h-1.4l-1.5,1.5h-11.2v-7.2c2.8-0.5,5-2.9,5-5.8
		c0-3-2.2-5.3-5-5.8V8.8l1.4-1.4V6.1h-1.4l-1.1,1.2l-1.2-1.2h-1.4v1.4l1.4,1.4V16c-2.8,0.5-5,2.9-5,5.8c0,3,2.2,5.3,5,5.8v7.2H106
		l-1.5-1.5h-1.4v1.4l1.1,1.1l-1.1,1.2v1.4h1.4l1.5-1.5h11.2v34.6c-1.9,1.8-5.1,4.3-10.1,4.3c-2.9,0-5.1-0.9-6.8-2
		c-1.1-0.7-2-1.7-3.3-2.8l1.9,0.1l0.8-0.8l-0.8-0.8H94v4.7l0.9,0.9l0.9-0.9l-0.1-1.8c1.3,1.6,2.4,2.4,3.9,3.4c2,1.2,4.4,2,7.5,2
		c3.2,0,7.1-1,10.1-3.7v2.5l-1.4,1.4v1.4h1.4l1.2-1.1l1.1,1.1h1.4V78l-1.4-1.4v-2.5c3.1,2.8,6.9,3.7,10.1,3.7c3.1,0,5.5-0.8,7.5-2
		c1.5-1,2.6-1.8,3.9-3.4l-0.1,1.8l0.9,0.9l0.9-0.9v-4.7h-4.8L137,70.2L137,70.2z M119.5,17.6c1.8,0.5,3.1,2.1,3.1,4.1
		s-1.3,3.6-3.1,4.1V17.6z M117.2,25.9c-1.8-0.5-3.1-2.2-3.1-4.1c0-2,1.3-3.6,3.1-4.1V25.9z"/>
</g>
<g id="Layer_2">
	<path class="st2" d="M47.6,103.2c0,1.9-0.3,2-0.6,2.3v0.2h2.9v-0.2c-0.2-0.2-0.5-0.5-0.5-2.3v-3.4c0-1.8,0.2-2.1,0.5-2.3v-0.2h-4.8
		c-2.1,0-3.2,0.9-3.2,2.4c0,1.3,0.7,2.1,2.4,2.3v0.1c-1.2,0-1.7,0.7-2.1,1.7l-0.1,0.4c-0.3,0.9-0.4,1.1-0.7,1.4v0.2h2.5
		c0.1-0.7,0.1-1.2,0.4-2c0.2-0.7,0.5-1.2,1.6-1.2h1.7C47.6,102.6,47.6,103.2,47.6,103.2z M45.7,101.4c-1,0-1.7-0.4-1.7-1.5
		s0.7-1.5,1.7-1.5h1.9v3.1L45.7,101.4L45.7,101.4z M28.9,102.6l-1.6-0.8c-0.5,1.4-1.3,2.8-3.2,2.8c-2.4,0-3.2-1.5-3.2-4.3
		s0.9-4.3,3-4.3c1.8,0,2.4,1.2,2.8,2.9l2-0.8c-0.7-2.1-2.5-3.3-4.9-3.3c-3.2,0-5.3,2.3-5.3,5.5s2.1,5.5,5.3,5.5
		C26.5,105.8,28.1,104.4,28.9,102.6z M117.4,105.4c-0.1-0.2-0.1-0.7,0.3-1.7h3.7c0.4,1,0.4,1.5,0.3,1.7v0.2h2.8v-0.2
		c-0.4-0.4-0.7-0.7-1.4-2.4l-2.5-5.9h-1.7l-2.3,5.9c-0.6,1.6-0.9,2-1.3,2.4v0.2h2.2L117.4,105.4L117.4,105.4z M118.8,100.6
		c0.3-0.7,0.5-1.3,0.6-2h0.1c0.1,0.7,0.4,1.4,0.6,2l0.8,2.1h-3L118.8,100.6z M159.6,105.8c2.8,0,4.4-2,4.4-4.4s-1.6-4.4-4.4-4.4
		c-2.8,0-4.4,2-4.4,4.4S156.8,105.8,159.6,105.8z M159.6,98.2c1.9,0,2.3,1.3,2.3,3.3s-0.4,3.3-2.3,3.3s-2.3-1.3-2.3-3.3
		S157.7,98.2,159.6,98.2z M148.7,98.3h0.2v4.8c0,1.8-0.2,2.1-0.5,2.3v0.2h2.8v-0.2c-0.2-0.2-0.5-0.5-0.5-2.3v-4.8h0.2
		c0.9,0,2,0.2,2.9,0.4h0.2v-1.5h-8.2v1.5h0.2C146.6,98.5,147.8,98.3,148.7,98.3L148.7,98.3z M144.2,104.1H144
		c-1.5,0.3-2.5,0.4-4.4,0.4h-0.5v-2.7h0.2c1,0,2.3,0,3.1,0.3h0.2v-1.7h-0.1c-0.8,0.3-2.1,0.3-3.1,0.3h-0.2v-2.5h0.2
		c1.9,0,2.9,0.1,4.4,0.4h0.2v-1.5h-7v0.2c0.2,0.2,0.5,0.5,0.5,2.3v3.4c0,1.8-0.2,2.1-0.5,2.3v0.2h7.3L144.2,104.1L144.2,104.1z
		 M214.2,96.3c2,0,3-0.6,3-1.8c0-0.2,0-0.4-0.1-0.5h-1.7v0.4c0,0.6-0.3,1.1-1.3,1.1c-0.9,0-1.3-0.5-1.3-1.1V94h-1.7
		c0,0.1-0.1,0.3-0.1,0.5C211.2,95.6,212.2,96.3,214.2,96.3L214.2,96.3z M174.8,103.4c0-1.1-0.9-2.1-2.5-2.1v-0.1
		c1.2-0.1,2.1-0.9,2.1-2c0-1.3-0.8-2-2.7-2h-5.1v0.2c0.2,0.2,0.5,0.5,0.5,2.3v3.4c0,1.8-0.2,2.1-0.5,2.3v0.2h5.3
		C173.9,105.6,174.8,104.8,174.8,103.4z M168.9,98.3h2.2c1,0,1.5,0.4,1.5,1.3c0,0.8-0.5,1.3-1.5,1.3h-2.2
		C168.9,100.9,168.9,98.3,168.9,98.3z M168.9,104.6v-2.8h2.4c1,0,1.5,0.5,1.5,1.4s-0.5,1.4-1.5,1.4H168.9z M54.9,98.3h0.2v4.8
		c0,1.8-0.2,2.1-0.5,2.3v0.2h2.8v-0.2c-0.2-0.2-0.5-0.5-0.5-2.3v-4.8h0.2c0.9,0,2,0.2,2.9,0.4h0.2v-1.5H52v1.5h0.2
		C52.9,98.5,54,98.3,54.9,98.3z M129.1,105.4c-0.3-0.2-0.6-0.5-0.6-2.3v-0.5h2.5c2.3,0,3.4-1.1,3.4-2.7s-1.1-2.7-3.4-2.7h-4.9v0.2
		c0.2,0.2,0.5,0.5,0.5,2.3v3.4c0,1.8-0.2,2.1-0.5,2.3v0.2h2.9L129.1,105.4L129.1,105.4z M128.5,98.3h2.1c1.2,0,1.7,0.5,1.7,1.6
		s-0.5,1.6-1.7,1.6h-2.1C128.5,101.5,128.5,98.3,128.5,98.3z M39.3,103.4c0-1.1-0.9-2.1-2.5-2.1v-0.1c1.2-0.1,2.1-0.9,2.1-2
		c0-1.3-0.8-2-2.7-2h-5.1v0.2c0.2,0.2,0.5,0.5,0.5,2.3v3.4c0,1.8-0.2,2.1-0.5,2.3v0.2h5.4C38.5,105.6,39.3,104.8,39.3,103.4z
		 M33.4,98.3h2.2c1,0,1.5,0.4,1.5,1.3c0,0.8-0.5,1.3-1.5,1.3h-2.2C33.4,100.9,33.4,98.3,33.4,98.3z M33.4,104.6v-2.8h2.4
		c1,0,1.5,0.5,1.5,1.4s-0.5,1.4-1.5,1.4H33.4z M84.6,104.2c-0.1,1.1-0.2,1.3-0.4,1.5v0.2h2.7v-0.2c-0.2-0.2-0.4-0.4-0.4-1.5
		c3.2,0,5.5-1.1,5.5-4s-2.3-4-5.5-4c0.1-1,0.3-1.3,0.4-1.5v-0.2h-2.7v0.2c0.2,0.2,0.4,0.4,0.4,1.5c-3.2,0-5.5,1.1-5.5,4
		S81.4,104.2,84.6,104.2z M86.4,97.2c2.3,0,3.3,0.8,3.3,3s-1.1,3-3.3,3V97.2z M84.6,97.2v6c-2.3,0-3.3-0.8-3.3-3
		C81.2,97.9,82.3,97.2,84.6,97.2z M185.5,103.3l-1.3-0.7c-0.4,1.1-1.1,2.1-2.6,2.1c-1.7,0-2.3-1.2-2.3-3.3c0-2.1,0.6-3.3,2.1-3.3
		c1.4,0,1.8,0.9,2.2,2.1l1.7-0.7c-0.5-1.7-2.1-2.6-3.9-2.6c-2.5,0-4.2,1.8-4.2,4.4c0,2.5,1.7,4.4,4.3,4.4
		C183.6,105.8,184.8,104.7,185.5,103.3z M190.1,101.8h1.5c1.3,0,1.5,0.7,1.7,1.5c0.3,0.8,0.4,1.5,0.5,2.3h2.4v-0.2
		c-0.3-0.3-0.4-0.6-0.7-1.4l-0.3-1c-0.4-1.2-1-1.8-2.7-1.8v-0.1c0.9-0.1,1.2-0.5,1.6-1.3l0.2-0.3c0.3-0.5,0.5-0.6,0.8-0.6
		c0.2,0,0.4,0.1,0.5,0.2h0.1V97c-0.2-0.1-0.4-0.1-0.7-0.1c-0.9,0-1.5,0.6-1.8,1.5l-0.2,0.8c-0.4,1.2-0.8,1.5-1.9,1.5h-1v-1
		c0-1.8,0.2-2.1,0.5-2.3v-0.2h-2.8v0.2c0.2,0.2,0.5,0.5,0.5,2.3v3.4c0,1.8-0.2,2.1-0.5,2.3v0.2h2.8v-0.2c-0.2-0.2-0.5-0.5-0.5-2.3
		L190.1,101.8L190.1,101.8z M151,116.8h0.2c0.8-0.2,1.9-0.4,2.9-0.4h0.2v4.8c0,1.8-0.2,2.1-0.5,2.3v0.2h2.8v-0.2
		c-0.2-0.2-0.5-0.5-0.5-2.3v-4.8h0.2c0.9,0,2,0.2,2.9,0.4h0.2v-1.5h-8.2v1.5H151z M132.2,116.8h0.2c0.8-0.2,1.9-0.4,2.9-0.4h0.2v4.8
		c0,1.8-0.2,2.1-0.5,2.3v0.2h2.8v-0.2c-0.2-0.2-0.5-0.5-0.5-2.3v-4.8h0.2c0.9,0,2,0.2,2.9,0.4h0.2v-1.5h-8.2v1.5H132.2z
		 M148.2,115.5c0.1,0.3-0.1,0.7-0.7,1.9l-0.4,0.8c-0.3,0.6-0.6,1.2-0.8,2h-0.1c-0.2-0.7-0.5-1.3-0.9-2l-0.4-0.8
		c-0.6-1.2-0.8-1.6-0.7-1.9v-0.2h-2.7v0.2c0.4,0.3,0.6,0.7,1.3,1.9l2.3,4.3c-0.2,0.4-0.7,0.7-1.3,0.7c-0.4,0-0.8-0.1-1.1-0.3
		l-0.6,1.5c0.3,0.2,0.9,0.4,1.6,0.4c1.3,0,2.1-0.8,2.9-2.3l2.3-4.3c0.7-1.2,0.8-1.6,1.2-1.9v-0.2H148v0.2L148.2,115.5z M204.7,99.1
		v4c0,1.8-0.2,2.1-0.5,2.3v0.2h2.8v-0.2c-0.2-0.2-0.5-0.5-0.5-2.3v-3.4c0-1.8,0.2-2.1,0.5-2.3v-0.2h-2.2l-3.1,4.6
		c-0.4,0.6-0.7,1.1-1.1,1.9h-0.1c0.1-0.8,0.1-1.4,0.1-2.2v-1.8c0-1.8,0.2-2.1,0.5-2.3v-0.2h-2.8v0.2c0.2,0.2,0.5,0.5,0.5,2.3v3.4
		c0,1.8-0.2,2.1-0.5,2.3v0.2h2.2l3.1-4.6C204,100.4,204.3,99.9,204.7,99.1z M216.2,99.1v4c0,1.8-0.2,2.1-0.5,2.3v0.2h2.8v-0.2
		c-0.2-0.2-0.5-0.5-0.5-2.3v-3.4c0-1.8,0.2-2.1,0.5-2.3v-0.2h-2.2l-3.1,4.6c-0.4,0.6-0.7,1.1-1.1,1.9H212c0.1-0.8,0.1-1.4,0.1-2.2
		v-1.8c0-1.8,0.2-2.1,0.5-2.3v-0.2h-2.8v0.2c0.2,0.2,0.5,0.5,0.5,2.3v3.4c0,1.8-0.2,2.1-0.5,2.3v0.2h2.2l3.1-4.6
		C215.5,100.4,215.9,99.9,216.2,99.1z M82.4,120c-0.4,0.6-0.7,1.1-1.1,1.9h-0.1c0.1-0.8,0.1-1.4,0.1-2.2v-1.8c0-1.8,0.2-2.1,0.5-2.3
		v-0.2H79v0.2c0.2,0.2,0.5,0.5,0.5,2.3v3.4c0,1.8-0.2,2.1-0.5,2.3v0.2h2.2l3.1-4.6c0.4-0.6,0.7-1.1,1.1-1.9h0.1
		c-0.1,0.8-0.1,1.4-0.1,2.2v1.8c0,1.8-0.2,2.1-0.5,2.3v0.2h2.8v-0.2c-0.2-0.2-0.5-0.5-0.5-2.3v-3.4c0-1.8,0.2-2.1,0.5-2.3v-0.2h-2.2
		L82.4,120z M96.3,115.5c0.2,0.2,0.5,0.5,0.5,2.3v1h-3.9v-1c0-1.8,0.2-2.1,0.5-2.3v-0.2h-2.9v0.2c0.2,0.2,0.5,0.5,0.5,2.3v3.4
		c0,1.8-0.2,2.1-0.5,2.3v0.2h2.8v-0.2c-0.2-0.2-0.5-0.5-0.5-2.3v-1.3h3.9v1.3c0,1.8-0.2,2.1-0.5,2.3v0.2H99v-0.2
		c-0.2-0.2-0.5-0.5-0.5-2.3v-3.3c0-1.8,0.2-2.1,0.5-2.3v-0.2L96.3,115.5L96.3,115.5L96.3,115.5z M72.2,102.2h5.3v-1.4h-5.3
		C72.2,100.8,72.2,102.2,72.2,102.2z M70.3,101.4c0-2.4-1.6-4.4-4.4-4.4c-2.8,0-4.4,2-4.4,4.4s1.6,4.4,4.4,4.4
		S70.3,103.8,70.3,101.4z M65.8,104.7c-1.9,0-2.3-1.3-2.3-3.3s0.4-3.3,2.3-3.3s2.3,1.3,2.3,3.3S67.7,104.7,65.8,104.7z M100.4,103.1
		c0,1.8-0.2,2.1-0.5,2.3v0.2h2.8v-0.2c-0.2-0.2-0.5-0.5-0.5-2.3v-3.4c0-1.8,0.2-2.1,0.5-2.3v-0.2h-2.2l-3.1,4.6
		c-0.4,0.6-0.7,1.1-1.1,1.9h-0.1c0.1-0.8,0.1-1.4,0.1-2.2v-1.8c0-1.8,0.2-2.1,0.5-2.3v-0.2H94v0.2c0.2,0.2,0.5,0.5,0.5,2.3v3.4
		c0,1.8-0.2,2.1-0.5,2.3v0.2h2.2l3.1-4.6c0.4-0.6,0.7-1.1,1.1-1.9h0.1c-0.1,0.8-0.1,1.4-0.1,2.2
		C100.4,101.3,100.4,103.1,100.4,103.1z M111.4,116.8h0.2c0.8-0.2,1.9-0.4,2.9-0.4h0.2v4.8c0,1.8-0.2,2.1-0.5,2.3v0.2h2.8v-0.2
		c-0.2-0.2-0.5-0.5-0.5-2.3v-4.8h0.2c0.9,0,2,0.2,2.9,0.4h0.2v-1.5h-8.2v1.5H111.4z M125,120c-0.4,0.6-0.7,1.1-1.1,1.9h-0.1
		c0.1-0.8,0.1-1.4,0.1-2.2v-1.8c0-1.8,0.2-2.1,0.5-2.3v-0.2h-2.8v0.2c0.2,0.2,0.5,0.5,0.5,2.3v3.4c0,1.8-0.2,2.1-0.5,2.3v0.2h2.2
		l3.1-4.6c0.4-0.6,0.7-1.1,1.1-1.9h0.1c-0.1,0.8-0.1,1.4-0.1,2.2v1.8c0,1.8-0.2,2.1-0.5,2.3v0.2h2.8v-0.2c-0.2-0.2-0.5-0.5-0.5-2.3
		v-3.4c0-1.8,0.2-2.1,0.5-2.3v-0.2h-2.2C128.1,115.4,125,120,125,120z M106.2,122.8c-1.7,0-2.3-1.2-2.3-3.3c0-2.1,0.6-3.3,2.1-3.3
		c1.4,0,1.8,0.9,2.2,2.1l1.7-0.7c-0.5-1.7-2.1-2.6-3.9-2.6c-2.5,0-4.2,1.8-4.2,4.4c0,2.5,1.7,4.4,4.3,4.4c2.1,0,3.3-1.1,4-2.6
		l-1.3-0.7C108.4,121.8,107.7,122.8,106.2,122.8z M110.7,105.4v0.2h2.8v-0.2c-0.2-0.2-0.5-0.5-0.5-2.3v-3.4c0-1.8,0.2-2.1,0.5-2.3
		v-0.2h-7.1v0.2c0.2,0.2,0.5,0.7,0.5,1.8c0,1.3-0.1,4.9-1.7,4.9h-0.3v1.7c0.2,0.1,0.5,0.1,0.8,0.1c2.1,0,2.6-2.7,2.6-6.7v-0.8h2.9
		v4.8C111.1,104.9,110.9,105.2,110.7,105.4z M102,62.4h2.6L98,46.7h-2.5l-6.6,15.7h2.5l1.4-3.4h7.8C100.6,59,102,62.4,102,62.4z
		 M93.5,57.1l3.1-7.8l3.2,7.8H93.5z M148.4,53.8c0-4.6-3.4-7.4-7.7-7.4s-7.7,2.8-7.7,7.4c0,2.8,1.4,5.4,3.9,6.8l-3.6-0.3v2h6.3v-1.8
		c-2.5-1.4-4.3-3.9-4.3-6.8c0-3,2-5.3,5.3-5.3s5.3,2.4,5.3,5.3s-1.8,5.3-4.3,6.8v1.8h6.3v-2l-3.6,0.3
		C147.1,59.2,148.4,56.7,148.4,53.8z M137.5,71.1l0.8,0.8l1.9-0.1c-1.3,1.1-2.3,2-3.3,2.8c-1.8,1.2-3.9,2-6.8,2
		c-5.1,0-8.2-2.4-10.1-4.3V37.7h11.2l1.5,1.5h1.4v-1.3l-1.1-1.2l1.1-1.1v-1.4h-1.4l-1.5,1.5H120v-7.2c2.8-0.5,5-2.9,5-5.8
		c0-3-2.2-5.3-5-5.8V9.7l1.4-1.4V7H120l-1.1,1.2L117.7,7h-1.4v1.4l1.4,1.4v7.1c-2.8,0.5-5,2.9-5,5.8c0,3,2.2,5.3,5,5.8v7.2h-11.2
		l-1.5-1.5h-1.4v1.4l1.1,1.1l-1.1,1.2v1.4h1.4l1.5-1.5h11.2v34.6c-1.9,1.8-5.1,4.3-10.1,4.3c-2.9,0-5.1-0.9-6.8-2
		c-1.1-0.7-2-1.7-3.3-2.8l1.9,0.1l0.8-0.8l-0.8-0.8h-4.9v4.7l0.9,0.9l0.9-0.9l-0.1-1.8c1.3,1.6,2.4,2.4,3.9,3.4c2,1.2,4.4,2,7.5,2
		c3.2,0,7.1-1,10.1-3.7v2.5l-1.4,1.4v1.4h1.4l1.2-1.1l1.1,1.1h1.4v-1.4l-1.4-1.4V75c3.1,2.8,6.9,3.7,10.1,3.7c3.1,0,5.5-0.8,7.5-2
		c1.5-1,2.6-1.8,3.9-3.4l-0.1,1.8l0.9,0.9l0.9-0.9v-4.7h-4.8L137.5,71.1L137.5,71.1z M120,18.5c1.8,0.5,3.1,2.1,3.1,4.1
		s-1.3,3.6-3.1,4.1V18.5z M117.7,26.8c-1.8-0.5-3.1-2.2-3.1-4.1c0-2,1.3-3.6,3.1-4.1V26.8z"/>
</g>
</svg>
