<?xml version="1.0" standalone="no"?>
<!DOCTYPE svg PUBLIC "-//W3C//DTD SVG 20010904//EN"
 "http://www.w3.org/TR/2001/REC-SVG-20010904/DTD/svg10.dtd">
<svg version="1.0" xmlns="http://www.w3.org/2000/svg"
 width="640.000000pt" height="640.000000pt" viewBox="0 0 640.000000 640.000000"
 preserveAspectRatio="xMidYMid meet">
<metadata>
Created by potrace 1.11, written by Peter Selinger 2001-2013
</metadata>
<g transform="translate(0.000000,640.000000) scale(0.100000,-0.100000)"
fill="#000000" stroke="none">
<path d="M3214 5788 l-41 -37 -33 34 c-29 30 -40 35 -82 35 l-48 0 0 -48 c0
-43 4 -52 45 -92 l44 -43 -2 -240 -2 -240 -50 -16 c-71 -24 -116 -53 -174
-116 -72 -80 -95 -145 -95 -270 0 -81 4 -111 23 -157 40 -102 149 -202 254
-233 l42 -12 3 -242 2 -241 -366 0 -366 0 -52 53 c-50 51 -54 52 -99 49 l-47
-4 0 -44 c0 -36 6 -51 36 -84 l36 -40 -36 -41 c-33 -36 -37 -45 -34 -87 l3
-47 45 0 c41 -1 49 4 97 52 l52 52 365 1 366 0 0 -1169 0 -1170 -45 -42 c-177
-166 -383 -249 -619 -249 -219 0 -398 76 -580 248 l-67 62 58 1 c52 0 60 3 81
29 l23 30 -31 30 -31 31 -157 -3 -157 -3 -3 -162 -2 -162 29 -30 c17 -17 34
-31 38 -31 4 0 21 14 36 29 27 28 28 33 22 86 l-8 57 49 -52 c135 -145 298
-240 489 -286 99 -24 314 -24 420 0 151 33 290 96 393 178 l62 50 0 -80 0 -79
-45 -42 c-42 -39 -45 -46 -45 -92 l0 -49 48 0 c42 0 52 5 82 35 l34 35 36 -35
c31 -30 42 -35 85 -35 l50 0 -4 47 c-3 37 -12 57 -43 94 -38 46 -39 48 -36
117 l3 71 60 -45 c190 -143 458 -213 702 -185 222 26 388 106 562 275 l73 71
-4 -52 c-5 -49 -3 -54 28 -84 l34 -33 30 29 30 29 -2 166 -3 165 -154 3 -154
3 -33 -32 -33 -32 22 -28 c20 -25 29 -28 82 -28 l60 -1 -45 -41 c-150 -136
-205 -173 -322 -219 -290 -111 -652 -35 -890 188 l-48 45 0 1173 0 1174 359 0
360 0 49 -50 c36 -37 58 -51 85 -54 64 -8 73 -1 69 52 -3 38 -11 54 -40 85
l-36 37 37 38 c32 33 37 44 37 85 l0 47 -49 0 c-46 0 -52 -3 -97 -50 l-48 -50
-363 0 -363 0 0 245 c0 227 1 245 18 245 35 0 143 61 187 105 24 25 59 76 77
113 31 63 33 72 33 177 0 103 -2 114 -31 175 -17 36 -51 86 -76 111 -44 46
-155 109 -190 109 -17 0 -18 14 -18 241 l0 241 40 48 c32 38 41 57 43 93 l3
45 -46 4 c-40 3 -49 0 -86 -34z m-118 -1305 c-10 -11 -88 41 -125 83 -94 108
-94 271 1 379 23 26 60 56 83 66 l40 18 3 -271 c1 -149 0 -273 -2 -275z m224
516 c78 -48 121 -124 128 -224 2 -40 -1 -83 -8 -100 -6 -16 -11 -31 -11 -33 1
-1 -5 -15 -14 -31 -20 -40 -70 -88 -116 -112 l-39 -19 0 270 c0 209 3 270 13
270 6 0 28 -10 47 -21z"/>
<path d="M4470 3125 c-93 -26 -173 -71 -228 -129 -28 -29 -55 -51 -59 -47 -4
3 -5 2 -1 -2 3 -5 -7 -35 -23 -67 -39 -78 -51 -138 -52 -245 0 -102 18 -179
65 -268 31 -58 102 -140 148 -171 24 -16 21 -16 -70 -11 -52 4 -101 8 -107 10
-10 3 -13 -15 -13 -70 l0 -75 210 0 210 0 0 63 0 62 -68 51 c-37 28 -66 58
-64 65 2 8 0 11 -4 7 -9 -9 -60 54 -89 112 -104 204 -57 439 107 537 127 76
316 58 421 -42 132 -125 141 -368 20 -543 -40 -59 -101 -120 -157 -158 -35
-24 -36 -26 -36 -89 l0 -65 210 0 210 0 0 75 c0 55 -3 73 -12 71 -7 -3 -55 -7
-106 -10 l-94 -6 42 35 c129 108 190 242 190 422 0 232 -105 393 -307 470 -87
33 -257 42 -343 18z"/>
<path d="M1631 3098 c-5 -13 -101 -250 -215 -527 -113 -277 -206 -508 -206
-512 0 -5 38 -9 84 -9 l83 0 42 105 c22 58 41 109 41 115 0 8 463 20 502 12 9
-2 34 -48 60 -115 l45 -112 86 -3 c48 -1 87 1 87 6 0 5 -33 90 -73 188 -41 98
-109 265 -151 369 -43 105 -102 249 -131 320 -30 72 -58 142 -64 158 -10 27
-12 27 -96 27 -79 0 -86 -2 -94 -22z m117 -225 c31 -85 64 -172 121 -317 28
-71 49 -131 47 -133 -2 -2 -91 -2 -199 -1 l-196 3 60 150 c32 82 76 196 96
252 21 57 40 103 43 103 3 0 16 -26 28 -57z"/>
</g>
</svg>
