<?xml version="1.0" standalone="no"?>
<!DOCTYPE svg PUBLIC "-//W3C//DTD SVG 20010904//EN"
 "http://www.w3.org/TR/2001/REC-SVG-20010904/DTD/svg10.dtd">
<svg version="1.0" xmlns="http://www.w3.org/2000/svg"
 width="910.000000pt" height="910.000000pt" viewBox="0 0 910.000000 910.000000"
 preserveAspectRatio="xMidYMid meet">
<metadata>
Created by potrace 1.11, written by Peter Selinger 2001-2013
</metadata>
<g transform="translate(0.000000,910.000000) scale(0.100000,-0.100000)"
fill="#000000" stroke="none">
<path d="M4360 9015 c0 -14 11 -52 25 -85 l25 -59 0 -366 0 -365 -27 -5 c-76
-16 -200 -68 -262 -109 -125 -84 -212 -203 -260 -361 -22 -71 -25 -99 -25
-240 0 -147 2 -167 27 -240 31 -95 82 -184 140 -243 85 -88 223 -164 351 -193
l56 -12 0 -619 0 -618 -740 0 -739 0 -51 30 c-36 21 -64 30 -95 30 l-45 0 0
-180 0 -180 44 0 c33 0 61 9 105 35 l59 35 731 0 731 0 0 -2144 0 -2144 -41
-80 c-149 -292 -400 -473 -762 -551 -208 -45 -483 -52 -652 -16 -192 40 -400
130 -585 252 -136 90 -209 150 -337 274 l-105 102 7 55 c4 30 13 74 20 98 15
51 18 49 -95 59 -41 4 -118 13 -170 21 -52 8 -107 14 -122 14 l-28 0 0 -206 0
-206 33 6 c54 10 142 9 163 -2 10 -5 71 -61 134 -124 330 -325 718 -518 1141
-568 167 -20 453 -8 607 24 397 84 732 275 881 503 l49 74 35 -49 c52 -71 192
-201 278 -259 407 -275 978 -362 1489 -227 352 93 760 341 940 573 71 91 102
106 196 93 38 -5 71 -8 73 -6 2 2 6 92 9 200 l5 196 -39 -6 c-246 -37 -380
-59 -386 -64 -3 -4 -2 -32 3 -62 15 -87 13 -123 -9 -166 -68 -134 -261 -293
-500 -413 -447 -225 -930 -252 -1368 -78 -241 97 -462 283 -558 470 l-36 69 0
2144 0 2144 740 0 741 0 55 -35 c39 -25 66 -35 94 -35 l40 0 0 180 0 180 -42
0 c-31 0 -56 -9 -88 -30 l-45 -30 -747 0 -748 0 0 630 0 630 23 0 c78 0 250
72 330 139 154 128 227 299 227 528 0 347 -191 601 -523 698 l-57 16 0 363 0
364 25 56 c14 31 25 70 25 86 l0 30 -185 0 -185 0 0 -25z m50 -1576 l0 -501
-27 6 c-60 14 -195 87 -241 130 -89 83 -132 198 -132 352 0 160 56 302 155
391 59 54 184 120 233 122 9 1 12 -106 12 -500z m398 456 c179 -84 271 -244
272 -470 0 -189 -66 -321 -205 -410 -50 -32 -153 -75 -180 -75 -13 0 -15 68
-15 501 l0 501 28 -6 c15 -4 60 -22 100 -41z"/>
<path d="M1125 4421 c-111 -32 -203 -88 -296 -181 -179 -178 -259 -391 -259
-690 0 -467 219 -771 608 -846 233 -45 439 15 600 174 83 81 126 138 179 237
31 59 32 59 38 30 56 -247 152 -416 251 -444 60 -17 130 -13 173 9 93 47 167
196 196 393 7 46 7 47 -19 47 -16 0 -29 -7 -32 -17 -35 -103 -101 -200 -155
-229 -43 -22 -110 -18 -150 9 -81 54 -173 256 -186 408 -5 61 -2 75 47 205 69
185 126 343 221 617 l78 227 -148 0 -148 0 -17 -62 c-38 -140 -150 -478 -156
-471 -4 5 -24 49 -45 98 -115 276 -270 440 -462 490 -78 20 -241 18 -318 -4z
m346 -117 c97 -53 199 -165 259 -284 43 -83 102 -235 123 -310 24 -90 20 -117
-49 -332 -110 -341 -270 -551 -437 -574 -53 -8 -152 16 -219 53 -168 92 -267
333 -268 656 -1 371 121 703 291 793 88 47 211 46 300 -2z"/>
<path d="M7078 4410 c-404 -69 -659 -355 -700 -786 -34 -357 76 -665 297 -831
101 -77 178 -105 295 -111 l95 -4 83 42 c99 50 199 144 252 238 19 34 38 62
42 62 4 0 22 -30 40 -67 67 -140 204 -240 361 -265 228 -35 434 88 555 332 29
58 64 150 79 205 24 91 26 117 26 290 1 175 -1 198 -25 287 -52 192 -143 336
-279 443 -134 104 -289 161 -466 172 -99 6 -103 5 -103 -14 0 -17 10 -22 63
-32 98 -19 197 -72 270 -144 155 -153 232 -369 244 -687 18 -490 -124 -784
-366 -756 -165 20 -292 153 -337 353 l-17 76 32 101 c59 193 65 228 65 416 1
139 -3 188 -17 239 -33 117 -87 197 -124 184 -87 -30 -133 -164 -133 -389 0
-150 18 -268 65 -434 l33 -115 -20 -65 c-46 -150 -139 -280 -240 -335 -43 -24
-65 -30 -118 -30 -174 1 -280 146 -325 445 -27 175 -15 488 25 645 64 254 242
440 471 491 55 13 69 20 69 35 0 17 -8 19 -72 18 -40 -1 -94 -5 -120 -9z"/>
</g>
</svg>
