<?xml version="1.0" standalone="no"?>
<!DOCTYPE svg PUBLIC "-//W3C//DTD SVG 20010904//EN"
 "http://www.w3.org/TR/2001/REC-SVG-20010904/DTD/svg10.dtd">
<svg version="1.0" xmlns="http://www.w3.org/2000/svg"
 width="180.000000pt" height="180.000000pt" viewBox="0 0 180.000000 180.000000"
 preserveAspectRatio="xMidYMid meet">
<metadata>
Created by potrace 1.11, written by Peter Selinger 2001-2013
</metadata>
<g transform="translate(0.000000,180.000000) scale(0.100000,-0.100000)"
fill="#000000" stroke="none">
<path d="M850 1621 c0 -11 5 -23 10 -26 6 -3 10 -37 10 -75 0 -67 -1 -70 -30
-85 -34 -17 -60 -61 -60 -100 0 -37 29 -83 62 -98 27 -11 28 -15 28 -79 l0
-68 -102 0 c-81 0 -105 3 -120 17 -24 22 -49 3 -28 -22 10 -12 10 -19 2 -27
-16 -16 -15 -38 2 -38 7 0 19 7 26 15 10 12 36 15 116 15 l104 0 -2 -337 -3
-337 -48 -30 c-82 -50 -179 -49 -261 5 -47 32 -58 49 -30 49 9 0 14 6 11 13
-2 7 -21 12 -48 12 -44 0 -44 0 -47 -39 -4 -45 14 -71 31 -45 9 15 15 13 54
-17 82 -62 199 -71 289 -20 26 14 48 26 50 26 9 0 3 -39 -6 -45 -12 -7 -14
-45 -2 -45 4 0 13 5 19 11 8 8 17 7 31 -2 31 -19 38 -4 17 36 -11 19 -17 37
-13 40 3 3 29 -7 58 -22 98 -51 215 -41 299 27 37 29 39 29 44 9 10 -37 27
-10 27 42 l0 49 -44 0 c-48 0 -72 -18 -36 -27 l21 -6 -23 -25 c-59 -63 -173
-80 -263 -38 -91 42 -86 19 -83 387 l3 324 106 3 c85 2 108 0 119 -13 21 -25
28 -17 28 35 0 52 -7 60 -28 35 -10 -12 -37 -15 -121 -15 l-109 0 0 63 c0 63
1 64 38 88 25 16 42 37 51 64 12 37 12 45 -4 79 -11 23 -31 44 -52 54 -32 15
-33 18 -33 75 0 37 6 69 17 88 20 33 11 49 -19 30 -14 -9 -23 -10 -31 -2 -17
17 -27 13 -27 -8z m20 -286 c0 -71 -1 -75 -19 -66 -23 13 -43 65 -34 89 8 22
34 52 45 52 4 0 8 -34 8 -75z m84 53 c22 -31 20 -80 -4 -106 -12 -12 -25 -22
-30 -22 -6 0 -10 34 -10 75 0 81 13 97 44 53z"/>
<path d="M403 730 c-60 -146 -61 -150 -38 -150 17 0 26 8 34 30 10 30 11 30
84 30 73 0 75 0 87 -30 9 -21 19 -30 36 -30 22 0 21 4 -38 150 -52 128 -64
150 -83 150 -18 0 -30 -22 -82 -150z m105 38 c11 -29 23 -61 27 -70 6 -16 0
-18 -49 -18 -31 0 -56 2 -56 4 0 4 22 66 39 109 6 15 13 27 15 27 3 0 13 -24
24 -52z"/>
<path d="M1234 870 c-11 -4 -33 -23 -48 -41 -26 -30 -28 -39 -24 -96 3 -53 9
-68 33 -94 l30 -31 -30 4 c-22 2 -31 -2 -33 -14 -3 -16 5 -18 57 -18 69 0 77
11 35 51 -60 56 -71 127 -28 178 21 26 33 31 68 31 52 0 81 -20 96 -66 10 -30
9 -43 -5 -80 -9 -24 -27 -52 -41 -63 -42 -33 -32 -51 31 -51 47 0 55 3 55 19
0 14 -6 17 -27 13 l-26 -5 28 37 c53 70 41 175 -27 216 -34 21 -105 26 -144
10z"/>
</g>
</svg>
